<mxfile host="Electron" modified="2024-04-14T17:33:05.955Z" agent="Mozilla/5.0 (Windows NT 10.0; Win64; x64) AppleWebKit/537.36 (KHTML, like Gecko) draw.io/24.1.0 Chrome/120.0.6099.109 Electron/28.1.0 Safari/537.36" etag="JQmdb5spsKuDDzV4Nsm4" version="24.1.0" type="device">
  <diagram name="第 1 页" id="cVy5eQwIqlXfNgqw4wyD">
    <mxGraphModel dx="521" dy="613" grid="1" gridSize="10" guides="1" tooltips="1" connect="1" arrows="1" fold="1" page="1" pageScale="1" pageWidth="827" pageHeight="1169" math="0" shadow="0">
      <root>
        <mxCell id="0" />
        <mxCell id="1" parent="0" />
        <mxCell id="u9lxnVgJj2btmIp8vmVK-8" style="edgeStyle=orthogonalEdgeStyle;rounded=0;orthogonalLoop=1;jettySize=auto;html=1;exitX=0.5;exitY=1;exitDx=0;exitDy=0;" edge="1" parent="1" source="u9lxnVgJj2btmIp8vmVK-1" target="u9lxnVgJj2btmIp8vmVK-3">
          <mxGeometry relative="1" as="geometry" />
        </mxCell>
        <mxCell id="u9lxnVgJj2btmIp8vmVK-1" value="开始" style="rounded=1;whiteSpace=wrap;html=1;" vertex="1" parent="1">
          <mxGeometry x="390" y="60" width="100" height="30" as="geometry" />
        </mxCell>
        <mxCell id="u9lxnVgJj2btmIp8vmVK-6" style="edgeStyle=orthogonalEdgeStyle;rounded=0;orthogonalLoop=1;jettySize=auto;html=1;exitX=0.5;exitY=1;exitDx=0;exitDy=0;" edge="1" parent="1" source="u9lxnVgJj2btmIp8vmVK-3">
          <mxGeometry relative="1" as="geometry">
            <mxPoint x="440" y="260" as="targetPoint" />
          </mxGeometry>
        </mxCell>
        <mxCell id="u9lxnVgJj2btmIp8vmVK-10" value="是" style="edgeLabel;html=1;align=center;verticalAlign=middle;resizable=0;points=[];" vertex="1" connectable="0" parent="u9lxnVgJj2btmIp8vmVK-6">
          <mxGeometry x="0.1379" y="-1" relative="1" as="geometry">
            <mxPoint as="offset" />
          </mxGeometry>
        </mxCell>
        <mxCell id="u9lxnVgJj2btmIp8vmVK-23" style="edgeStyle=orthogonalEdgeStyle;rounded=0;orthogonalLoop=1;jettySize=auto;html=1;exitX=1;exitY=0.75;exitDx=0;exitDy=0;entryX=0.5;entryY=0;entryDx=0;entryDy=0;" edge="1" parent="1" source="u9lxnVgJj2btmIp8vmVK-3" target="u9lxnVgJj2btmIp8vmVK-22">
          <mxGeometry relative="1" as="geometry" />
        </mxCell>
        <mxCell id="u9lxnVgJj2btmIp8vmVK-24" value="否" style="edgeLabel;html=1;align=center;verticalAlign=middle;resizable=0;points=[];" vertex="1" connectable="0" parent="u9lxnVgJj2btmIp8vmVK-23">
          <mxGeometry x="0.1323" y="4" relative="1" as="geometry">
            <mxPoint as="offset" />
          </mxGeometry>
        </mxCell>
        <mxCell id="u9lxnVgJj2btmIp8vmVK-3" value="获取本地人脸图像" style="rounded=0;whiteSpace=wrap;html=1;" vertex="1" parent="1">
          <mxGeometry x="390" y="160" width="100" height="30" as="geometry" />
        </mxCell>
        <mxCell id="u9lxnVgJj2btmIp8vmVK-4" value="结束" style="rounded=1;whiteSpace=wrap;html=1;" vertex="1" parent="1">
          <mxGeometry x="390" y="540" width="100" height="30" as="geometry" />
        </mxCell>
        <mxCell id="u9lxnVgJj2btmIp8vmVK-14" style="edgeStyle=orthogonalEdgeStyle;rounded=0;orthogonalLoop=1;jettySize=auto;html=1;exitX=0.5;exitY=1;exitDx=0;exitDy=0;entryX=0.5;entryY=0;entryDx=0;entryDy=0;" edge="1" parent="1" source="u9lxnVgJj2btmIp8vmVK-12" target="u9lxnVgJj2btmIp8vmVK-15">
          <mxGeometry relative="1" as="geometry">
            <mxPoint x="440" y="330" as="targetPoint" />
          </mxGeometry>
        </mxCell>
        <mxCell id="u9lxnVgJj2btmIp8vmVK-12" value="图像处理" style="rounded=0;whiteSpace=wrap;html=1;" vertex="1" parent="1">
          <mxGeometry x="390" y="260" width="100" height="30" as="geometry" />
        </mxCell>
        <mxCell id="u9lxnVgJj2btmIp8vmVK-16" style="edgeStyle=orthogonalEdgeStyle;rounded=0;orthogonalLoop=1;jettySize=auto;html=1;exitX=1;exitY=0.5;exitDx=0;exitDy=0;" edge="1" parent="1" source="u9lxnVgJj2btmIp8vmVK-15">
          <mxGeometry relative="1" as="geometry">
            <mxPoint x="550" y="365" as="targetPoint" />
          </mxGeometry>
        </mxCell>
        <mxCell id="u9lxnVgJj2btmIp8vmVK-25" value="否" style="edgeLabel;html=1;align=center;verticalAlign=middle;resizable=0;points=[];" vertex="1" connectable="0" parent="u9lxnVgJj2btmIp8vmVK-16">
          <mxGeometry x="-0.3658" y="2" relative="1" as="geometry">
            <mxPoint as="offset" />
          </mxGeometry>
        </mxCell>
        <mxCell id="u9lxnVgJj2btmIp8vmVK-21" style="edgeStyle=orthogonalEdgeStyle;rounded=0;orthogonalLoop=1;jettySize=auto;html=1;exitX=0.5;exitY=1;exitDx=0;exitDy=0;entryX=0.5;entryY=0;entryDx=0;entryDy=0;" edge="1" parent="1" source="u9lxnVgJj2btmIp8vmVK-15" target="u9lxnVgJj2btmIp8vmVK-20">
          <mxGeometry relative="1" as="geometry" />
        </mxCell>
        <mxCell id="u9lxnVgJj2btmIp8vmVK-15" value="与云端数据对比" style="rhombus;whiteSpace=wrap;html=1;" vertex="1" parent="1">
          <mxGeometry x="385" y="340" width="110" height="50" as="geometry" />
        </mxCell>
        <mxCell id="u9lxnVgJj2btmIp8vmVK-26" style="edgeStyle=orthogonalEdgeStyle;rounded=0;orthogonalLoop=1;jettySize=auto;html=1;exitX=0.5;exitY=1;exitDx=0;exitDy=0;entryX=0.5;entryY=0;entryDx=0;entryDy=0;" edge="1" parent="1" source="u9lxnVgJj2btmIp8vmVK-20" target="u9lxnVgJj2btmIp8vmVK-4">
          <mxGeometry relative="1" as="geometry" />
        </mxCell>
        <mxCell id="u9lxnVgJj2btmIp8vmVK-20" value="签到成功" style="rounded=0;whiteSpace=wrap;html=1;" vertex="1" parent="1">
          <mxGeometry x="390" y="450" width="100" height="30" as="geometry" />
        </mxCell>
        <mxCell id="u9lxnVgJj2btmIp8vmVK-22" value="签到失败" style="rounded=0;whiteSpace=wrap;html=1;" vertex="1" parent="1">
          <mxGeometry x="550" y="350" width="100" height="30" as="geometry" />
        </mxCell>
      </root>
    </mxGraphModel>
  </diagram>
</mxfile>
